<?xml version="1.0" encoding="utf-8"?>
<!-- Generator: Adobe Illustrator 27.9.0, SVG Export Plug-In . SVG Version: 6.00 Build 0)  -->
<svg version="1.1" id="Layer_1" xmlns="http://www.w3.org/2000/svg" xmlns:xlink="http://www.w3.org/1999/xlink" x="0px" y="0px"
	 viewBox="0 0 936 306" style="enable-background:new 0 0 936 306;" xml:space="preserve">
<style type="text/css">
	.st0{fill:#A62A4B;}
</style>
<path class="st0" d="M184.9,118.4c-18-18-41.9-27.9-67.3-27.9s-49.3,9.9-67.3,27.9c-12.3,12.3-20.9,27.5-25,44
	c1.3,1.4,2.6,2.8,4,4.2c18,18,41.9,27.9,67.3,27.9s49.3-9.9,67.3-27.9c12.3-12.3,20.9-27.5,25-44
	C187.6,121.2,186.3,119.7,184.9,118.4L184.9,118.4z M224.7,140.4c-5.9-13.8-14.2-26.3-24.9-37c-2.6-2.6-5.3-5.1-8.1-7.4
	c0,1,0.1,2.1,0.1,3.2c0,8-1,15.8-2.9,23.3c15.5,17.4,23.9,39.6,23.9,63.1c0,25.4-9.9,49.3-27.9,67.3c-18,18-41.9,27.9-67.3,27.9
	S68.3,271,50.3,253c-18-18-27.9-41.9-27.9-67.3c0-8,1-15.8,2.9-23.3c-6-6.7-10.9-14.2-14.7-22.1c0,0.1-0.1,0.1-0.1,0.2
	c-6.1,14.3-9.1,29.6-9.1,45.2s3.1,30.9,9.1,45.2c5.9,13.8,14.2,26.3,24.9,36.9s23.1,19,36.9,24.9c14.3,6.1,29.6,9.1,45.2,9.1
	s30.9-3.1,45.2-9.1c13.8-5.9,26.3-14.2,36.9-24.9s19-23.1,24.9-36.9c6.1-14.3,9.1-29.6,9.1-45.2S230.7,154.8,224.7,140.4
	L224.7,140.4z M96.5,194.5c25.4,0,49.3-9.9,67.3-27.9c12.3-12.3,20.9-27.5,25-44c-1.3-1.4-2.6-2.9-4-4.2c-18-18-41.9-27.9-67.3-27.9
	s-49.3,9.9-67.3,27.9c-12.3,12.3-20.9,27.5-25,44c1.3,1.4,2.6,2.8,4,4.2C47.2,184.6,71.1,194.5,96.5,194.5L96.5,194.5z M184.9,118.4
	c-18-18-41.9-27.9-67.3-27.9s-49.3,9.9-67.3,27.9c-12.3,12.3-20.9,27.5-25,44c1.3,1.4,2.6,2.8,4,4.2c18,18,41.9,27.9,67.3,27.9
	s49.3-9.9,67.3-27.9c12.3-12.3,20.9-27.5,25-44C187.6,121.2,186.3,119.7,184.9,118.4L184.9,118.4z M163.8,32
	C145.9,14,122,4.1,96.5,4.1S47.2,14,29.2,32C11.3,50,1.4,73.9,1.4,99.3c0,14.4,3.2,28.3,9.2,41c5.9-13.8,14.2-26.1,24.8-36.8
	c10.7-10.7,23.1-19,36.9-24.9c14.3-6.1,29.6-9.1,45.2-9.1s30.9,3.1,45.2,9.1c10.5,4.4,20.1,10.3,28.8,17.5
	C190.9,71.9,181.1,49.2,163.8,32L163.8,32z M184.9,118.4c-18-18-41.9-27.9-67.3-27.9s-49.3,9.9-67.3,27.9
	c-12.3,12.3-20.9,27.5-25,44c1.3,1.4,2.6,2.8,4,4.2c18,18,41.9,27.9,67.3,27.9s49.3-9.9,67.3-27.9c12.3-12.3,20.9-27.5,25-44
	C187.6,121.2,186.3,119.7,184.9,118.4L184.9,118.4z"/>
<g>
	<g>
		<path class="st0" d="M631,115.8c-2.2-5.3-5.4-10-9.5-14.1c-4.1-4.1-8.8-7.2-14.1-9.5c-5.5-2.3-11.3-3.5-17.2-3.5
			s-11.8,1.2-17.2,3.5c-5.3,2.2-10,5.4-14.1,9.5c-4.1,4.1-7.3,8.8-9.5,14.1c-2.3,5.5-3.5,11.3-3.5,17.2c0,6,1.2,11.8,3.5,17.2
			c2.2,5.3,5.4,10,9.5,14.1c4.1,4.1,8.8,7.3,14.1,9.5c5.5,2.3,11.3,3.5,17.2,3.5s11.8-1.2,17.2-3.5c5.3-2.2,10-5.4,14.1-9.5
			c4.1-4.1,7.2-8.8,9.5-14.1c2.3-5.5,3.5-11.3,3.5-17.2C634.5,127,633.3,121.2,631,115.8z M615.9,158.6c-6.8,6.8-16,10.6-25.6,10.6
			s-18.8-3.8-25.6-10.6c-6.8-6.8-10.6-16-10.6-25.6s3.8-18.8,10.6-25.6c6.8-6.8,16-10.6,25.6-10.6s18.8,3.8,25.6,10.6
			c6.8,6.9,10.6,16,10.6,25.6C626.5,142.7,622.7,151.8,615.9,158.6z"/>
		<path class="st0" d="M833.5,115.8c-2.2-5.3-5.4-10-9.5-14.1c-4.1-4.1-8.8-7.2-14.1-9.5c-5.5-2.3-11.3-3.5-17.2-3.5
			s-11.8,1.2-17.2,3.5c-5.3,2.2-10,5.4-14.1,9.5c-4.1,4.1-7.3,8.8-9.5,14.1c-2.3,5.5-3.5,11.3-3.5,17.2c0,6,1.2,11.8,3.5,17.2
			c2.2,5.3,5.4,10,9.5,14.1c4.1,4.1,8.8,7.3,14.1,9.5c5.5,2.3,11.3,3.5,17.2,3.5s11.8-1.2,17.2-3.5c5.3-2.2,10-5.4,14.1-9.5
			c4.1-4.1,7.3-8.8,9.5-14.1c2.3-5.5,3.5-11.3,3.5-17.2C837,127,835.8,121.2,833.5,115.8z M818.3,158.6c-6.8,6.8-16,10.6-25.6,10.6
			s-18.8-3.8-25.6-10.6c-6.8-6.8-10.6-16-10.6-25.6s3.8-18.8,10.6-25.6c6.8-6.8,16-10.6,25.6-10.6s18.8,3.8,25.6,10.6
			c6.8,6.9,10.6,16,10.6,25.6C828.9,142.7,825.2,151.8,818.3,158.6z"/>
		<path class="st0" d="M931.2,115.8c-2.2-5.3-5.4-10-9.5-14.1c-4.1-4.1-8.8-7.3-14.1-9.5c-5.5-2.3-11.3-3.5-17.2-3.5
			s-11.8,1.2-17.2,3.5c-5.3,2.2-10,5.4-14.1,9.5c-1.8,1.8-3.5,3.8-5,5.9V88.7h-8v88.6h8V133c0-9.7,3.8-18.8,10.6-25.6
			s16-10.6,25.6-10.6s18.8,3.8,25.6,10.6c6.8,6.9,10.6,16,10.6,25.6s-3.8,18.8-10.6,25.6c-3,3-6.5,5.4-10.2,7.2v8.7
			c0.6-0.2,1.2-0.5,1.8-0.7c5.3-2.2,10-5.4,14.1-9.5c4.1-4.1,7.3-8.8,9.5-14.1c2.3-5.5,3.5-11.3,3.5-17.2
			C934.6,127,933.5,121.2,931.2,115.8L931.2,115.8z"/>
		<rect x="732.2" y="88.7" class="st0" width="8" height="88.6"/>
		<path class="st0" d="M356.4,148.9c-1.7,3.5-4.1,6.8-7,9.7c-6.1,6.1-13.9,9.7-22.4,10.5c-1.1,0.1-2.2,0.1-3.3,0.1
			c-1.6,0-3.3-0.1-4.9-0.3c-7.8-1-15.1-4.6-20.7-10.3c-6.9-6.8-10.6-16-10.6-25.6c0-3.2,0.4-6.3,1.2-9.2c1.2,1.5,2.4,2.9,3.8,4.3
			c4.1,4.1,8.8,7.3,14.1,9.5c5.5,2.3,11.3,3.5,17.2,3.5s11.8-1.2,17.2-3.5c5.3-2.2,10-5.4,14.1-9.5c1.4-1.3,2.6-2.8,3.8-4.3
			c2.1-2.7,3.9-5.7,5.3-8.9c-1.4-3.2-3.2-6.2-5.3-8.9c-1.1-1.5-2.4-2.9-3.8-4.3c-4.1-4.1-8.8-7.2-14.1-9.5
			c-5.5-2.3-11.3-3.5-17.2-3.5s-11.8,1.2-17.2,3.5c-5.3,2.2-10,5.4-14.1,9.5c-1.4,1.4-2.6,2.8-3.8,4.3c-2.1,2.7-3.9,5.7-5.3,8.9
			c-0.1,0.3-0.3,0.6-0.4,0.9c-2.3,5.5-3.5,11.3-3.5,17.2c0,6,1.2,11.8,3.5,17.2c2.2,5.3,5.4,10,9.5,14.1c4.1,4.1,8.8,7.3,14.1,9.5
			c3.7,1.6,7.6,2.6,11.5,3.1c1.9,0.2,3.8,0.4,5.7,0.4c0.8,0,1.6,0,2.3-0.1c5.1-0.3,10.1-1.4,14.9-3.4c5.3-2.2,10-5.4,14.1-9.5
			c4.1-4.1,7.3-8.8,9.5-14.1c0.2-0.4,0.4-0.9,0.5-1.3H356.4L356.4,148.9z M298.2,107.4c6.9-6.8,16-10.6,25.6-10.6
			s18.8,3.8,25.6,10.6c2.3,2.3,4.2,4.8,5.8,7.5c-1.6,2.7-3.5,5.2-5.8,7.5c-6.9,6.9-16,10.6-25.6,10.6s-18.8-3.8-25.6-10.6
			c-2.3-2.3-4.2-4.8-5.8-7.5C294,112.2,295.9,109.6,298.2,107.4L298.2,107.4z"/>
		<path class="st0" d="M724.4,148.9c-0.2,0.4-0.3,0.9-0.5,1.3c-0.9,2.1-1.9,4-3.1,5.9c-1.8,2.9-4,5.7-6.4,8.1
			c-4.1,4.1-8.8,7.3-14.1,9.5c-5.5,2.3-11.3,3.5-17.2,3.5s-11.8-1.2-17.2-3.5c-0.3-0.1-0.6-0.3-0.9-0.4c-2.5-1.1-4.8-2.5-7.1-4
			c-2.2-1.5-4.2-3.2-6.1-5.1c-4.1-4.1-7.3-8.8-9.5-14.1c-2.3-5.5-3.5-11.3-3.5-17.2c0-6,1.2-11.8,3.5-17.2c0.7-1.7,1.5-3.3,2.4-4.9
			c-0.9-1.6-1.7-3.2-2.4-4.9c-2.3-5.5-3.5-11.3-3.5-17.2l0,0h8l0,0c0,5.2,1.1,10.2,3.2,14.9c0.6-0.6,1.2-1.3,1.8-1.9
			c4.1-4.1,8.8-7.2,14.1-9.5c0.1-0.1,0.3-0.1,0.4-0.2c1.5,2.1,3.2,4.1,5,6c0.2,0.2,0.3,0.3,0.5,0.5c-5.3,1.8-10.2,4.7-14.3,8.8
			c-1.1,1.1-2.1,2.3-3.1,3.5c1,1.2,2,2.4,3.1,3.5c6.8,6.9,16,10.6,25.6,10.6s18.8-3.8,25.6-10.6c1.1-1.1,2.1-2.3,3.1-3.5
			c1.8,2.3,3.2,4.7,4.4,7.3c-0.6,0.6-1.2,1.3-1.8,1.9c-4.1,4.1-8.8,7.2-14.1,9.5c-5.5,2.3-11.3,3.5-17.2,3.5s-11.8-1.2-17.2-3.5
			c-5.3-2.2-10-5.4-14.1-9.5c-0.6-0.6-1.2-1.2-1.8-1.9c-2.1,4.6-3.2,9.7-3.2,14.9c0,9.7,3.8,18.8,10.6,25.6c1.3,1.3,2.6,2.4,4,3.5
			c2.2,1.6,4.5,3,6.9,4c4.6,2,9.5,3.1,14.7,3.1c9.7,0,18.8-3.8,25.6-10.6c2-2,3.7-4.2,5.2-6.5c0.6-1,1.2-2.1,1.8-3.2L724.4,148.9
			L724.4,148.9z"/>
		<path class="st0" d="M537.7,115.8c-2.2-5.3-5.4-10-9.5-14.1c-4.1-4.1-8.8-7.2-14.1-9.5c-5.5-2.3-11.3-3.5-17.2-3.5
			s-11.8,1.2-17.2,3.5c-5.3,2.2-10,5.4-14.1,9.5c-0.2,0.2-0.5,0.5-0.7,0.7c-0.7,0.7-1.3,1.4-1.9,2.1c-0.2,0.2-0.4,0.5-0.6,0.7
			c-0.1,0.2-0.3,0.3-0.4,0.5c-0.5,0.6-0.9,1.2-1.3,1.8c-1.5,2.2-2.9,4.5-4,7c-1.1-2.5-2.5-4.8-4-7c-1.5-2.1-3.1-4.1-5-5.9
			c-4.1-4.1-8.8-7.2-14.1-9.5c-5.5-2.3-11.3-3.5-17.2-3.5s-11.8,1.2-17.2,3.5c-5.3,2.2-10,5.4-14.1,9.5c-1.8,1.8-3.5,3.8-5,5.9V88.7
			h-8V133l0,0v44.3h8V133l0,0c0-9.7,3.8-18.8,10.6-25.7s16-10.6,25.6-10.6s18.8,3.8,25.6,10.6c6.3,6.3,10,14.5,10.5,23.3l0,0v18.3
			h8.2v-18.3l0,0c0-0.2,0-0.5,0-0.7c0-0.1,0-0.2,0-0.3c0-0.2,0-0.5,0.1-0.7c0-0.3,0.1-0.5,0.1-0.8c0-0.3,0.1-0.5,0.1-0.8
			c0-0.3,0.1-0.6,0.1-0.8c0.1-0.8,0.3-1.6,0.5-2.4c0.2-0.8,0.4-1.6,0.7-2.3c0.1-0.3,0.2-0.5,0.3-0.8c0.1-0.3,0.2-0.5,0.3-0.8
			c0.1-0.2,0.2-0.5,0.3-0.7c0.7-1.8,1.6-3.6,2.6-5.2c0.3-0.4,0.5-0.9,0.8-1.3c0.2-0.2,0.3-0.5,0.5-0.7c0.2-0.2,0.3-0.5,0.5-0.7
			s0.3-0.5,0.5-0.7c0.2-0.2,0.3-0.4,0.5-0.6c0.2-0.2,0.4-0.5,0.6-0.7c0.2-0.2,0.3-0.4,0.5-0.5c0.2-0.2,0.4-0.4,0.5-0.6
			c0.4-0.4,0.8-0.8,1.2-1.2c6.8-6.9,16-10.6,25.6-10.6s18.8,3.8,25.7,10.6c6.8,6.9,10.6,16,10.6,25.6c0,9.7-3.8,18.8-10.6,25.6
			c-0.8,0.8-1.6,1.5-2.5,2.3c-0.2,0.1-0.3,0.3-0.5,0.4c-1.1,0.9-2.3,1.7-3.5,2.5c-0.2,0.1-0.4,0.2-0.6,0.4c-0.2,0.1-0.5,0.3-0.7,0.4
			c-0.3,0.2-0.6,0.3-0.9,0.5c-0.2,0.1-0.5,0.3-0.7,0.4c-0.3,0.1-0.5,0.3-0.8,0.4c0,0,0,0-0.1,0v8.7c0.6-0.2,1.2-0.5,1.8-0.7
			c5.3-2.2,10-5.4,14.1-9.5s7.2-8.8,9.5-14.1c2.3-5.5,3.5-11.3,3.5-17.2C541.1,127,540,121.2,537.7,115.8L537.7,115.8z"/>
	</g>
	<g>
		<path class="st0" d="M643.8,197h-4.5c-0.3,0-0.4,0.2-0.4,0.5V220c0,0.3,0.1,0.5,0.4,0.5h4.5c8.2,0,11.9-5,11.9-11.7
			S652,197,643.8,197z M643.7,218.9h-3.2v-20.4h3.2c7.1,0,10.2,3.9,10.2,10.2S650.8,218.9,643.7,218.9z"/>
		<path class="st0" d="M678.9,219.9l-8.2-22.5c-0.1-0.3-0.3-0.4-0.6-0.4h-1c-0.3,0-0.5,0.1-0.6,0.4l-8.2,22.5
			c-0.1,0.3,0,0.6,0.4,0.6h0.8c0.3,0,0.5-0.1,0.6-0.4l1.9-5.3h11.3l2,5.3c0.1,0.3,0.3,0.4,0.5,0.4h0.8
			C678.9,220.4,679,220.2,678.9,219.9L678.9,219.9z M664.4,213.1l5.2-14.2l5.1,14.2H664.4z"/>
		<path class="st0" d="M701.7,197h-0.8c-0.3,0-0.4,0.2-0.4,0.5v20.8l-11.9-21c-0.1-0.2-0.3-0.3-0.6-0.3h-1.3c-0.3,0-0.4,0.2-0.4,0.5
			V220c0,0.3,0.1,0.5,0.4,0.5h0.8c0.3,0,0.5-0.2,0.5-0.5v-20.8l11.8,20.9c0.1,0.2,0.3,0.3,0.6,0.3h1.3c0.3,0,0.5-0.2,0.5-0.5v-22.5
			C702.2,197.2,702,197,701.7,197L701.7,197z"/>
		<path class="st0" d="M729.9,217.2l-0.5-0.6c-0.2-0.2-0.4-0.2-0.7,0.1c-1.8,1.6-4,2.5-6.7,2.5c-5.8,0-10.2-4.4-10.2-10.4
			s4.4-10.5,10.2-10.5c2.7,0,4.9,0.9,6.7,2.5c0.3,0.2,0.5,0.2,0.7,0l0.4-0.5c0.3-0.3,0.1-0.6-0.1-0.8c-2.1-1.8-4.5-2.9-7.8-2.9
			c-7,0-11.8,5.3-11.8,12.1s4.8,12,11.8,12c3.2,0,5.7-1.1,7.8-2.9C730,217.7,730.3,217.5,729.9,217.2z"/>
		<path class="st0" d="M749.3,218.9h-9.8V209h9.2c0.3,0,0.5-0.1,0.5-0.4v-0.6c0-0.3-0.2-0.5-0.5-0.5h-9.2v-8.9h9.7
			c0.3,0,0.4-0.2,0.4-0.5v-0.6c0-0.3-0.1-0.5-0.4-0.5h-11c-0.3,0-0.4,0.2-0.4,0.5V220c0,0.3,0.1,0.5,0.4,0.5h11
			c0.3,0,0.5-0.2,0.5-0.5v-0.6C749.8,219.1,749.7,218.9,749.3,218.9L749.3,218.9z"/>
		<path class="st0" d="M785,219.9l-8.2-22.5c-0.1-0.3-0.3-0.4-0.6-0.4h-1c-0.3,0-0.5,0.1-0.6,0.4l-8.2,22.5c-0.1,0.3,0,0.6,0.4,0.6
			h0.8c0.3,0,0.5-0.1,0.6-0.4l2-5.3h11.3l1.9,5.3c0.1,0.3,0.3,0.4,0.5,0.4h0.8C785,220.4,785.2,220.2,785,219.9L785,219.9z
			 M770.5,213.1l5.2-14.2l5.1,14.2H770.5L770.5,213.1z"/>
		<path class="st0" d="M810,217.2l-0.5-0.6c-0.2-0.2-0.4-0.2-0.7,0.1c-1.8,1.6-4,2.5-6.7,2.5c-5.8,0-10.2-4.4-10.2-10.4
			s4.4-10.5,10.2-10.5c2.7,0,4.9,0.9,6.7,2.5c0.3,0.2,0.5,0.2,0.7,0l0.4-0.5c0.3-0.3,0.1-0.6-0.1-0.8c-2.1-1.8-4.6-2.9-7.8-2.9
			c-7,0-11.8,5.3-11.8,12.1s4.8,12,11.8,12c3.2,0,5.7-1.1,7.8-2.9C810.1,217.7,810.4,217.5,810,217.2z"/>
		<path class="st0" d="M834.9,219.9l-8.2-22.5c-0.1-0.3-0.3-0.4-0.6-0.4h-1c-0.3,0-0.5,0.1-0.6,0.4l-8.2,22.5
			c-0.1,0.3,0,0.6,0.4,0.6h0.8c0.3,0,0.5-0.1,0.6-0.4l1.9-5.3h11.4l1.9,5.3c0.1,0.3,0.3,0.4,0.5,0.4h0.8
			C834.9,220.4,835,220.2,834.9,219.9L834.9,219.9z M820.4,213.1l5.2-14.2l5.1,14.2H820.4L820.4,213.1z"/>
		<path class="st0" d="M847.2,197h-4.5c-0.3,0-0.4,0.2-0.4,0.5V220c0,0.3,0.1,0.5,0.4,0.5h4.5c8.2,0,11.9-5,11.9-11.7
			S855.5,197,847.2,197z M847.2,218.9H844v-20.4h3.2c7.1,0,10.2,3.9,10.2,10.2S854.3,218.9,847.2,218.9z"/>
		<path class="st0" d="M878.4,218.9h-9.8V209h9.2c0.3,0,0.5-0.1,0.5-0.4v-0.6c0-0.3-0.2-0.5-0.5-0.5h-9.2v-8.9h9.8
			c0.3,0,0.4-0.2,0.4-0.5v-0.6c0-0.3-0.1-0.5-0.4-0.5h-11c-0.3,0-0.4,0.2-0.4,0.5V220c0,0.3,0.1,0.5,0.4,0.5h11
			c0.3,0,0.5-0.2,0.5-0.5v-0.6C878.9,219.1,878.7,218.9,878.4,218.9L878.4,218.9z"/>
		<path class="st0" d="M909.7,197h-1.4c-0.3,0-0.4,0.1-0.5,0.3l-9.2,21.4l-9.1-21.4c-0.1-0.2-0.3-0.3-0.5-0.3h-1.4
			c-0.3,0-0.4,0.2-0.4,0.5V220c0,0.3,0.1,0.5,0.4,0.5h0.8c0.3,0,0.5-0.2,0.5-0.5v-20.5l8.7,20.6c0.1,0.3,0.3,0.4,0.6,0.4h1
			c0.3,0,0.4-0.1,0.5-0.4l8.8-20.6V220c0,0.3,0.1,0.5,0.4,0.5h0.8c0.3,0,0.5-0.2,0.5-0.5v-22.5C910.2,197.2,910,197,909.7,197
			L909.7,197z"/>
		<path class="st0" d="M933.1,197h-0.9c-0.3,0-0.4,0.1-0.5,0.3l-6,10.1l-6-10.1c-0.1-0.2-0.3-0.3-0.6-0.3H918
			c-0.4,0-0.5,0.3-0.3,0.6l7,11.5V220c0,0.3,0.1,0.5,0.4,0.5h0.8c0.3,0,0.5-0.2,0.5-0.5V209l7-11.5C933.6,197.2,933.5,197,933.1,197
			L933.1,197z"/>
	</g>
</g>
</svg>
